    <svg version="1.1" xmlns="http://www.w3.org/2000/svg" xmlns:xlink="http://www.w3.org/1999/xlink" x="0px" y="0px" width="65px" height="65px" viewBox="-11 -11.5 65 66">
      <g>
        <g>
          <path fill="#474544" d="M-10.5,22.118C-10.5,4.132,4.133-10.5,22.118-10.5S54.736,4.132,54.736,22.118
			c0,17.985-14.633,32.618-32.618,32.618S-10.5,40.103-10.5,22.118z M-8.288,22.118c0,16.766,13.639,30.406,30.406,30.406 c16.765,0,30.405-13.641,30.405-30.406c0-16.766-13.641-30.406-30.405-30.406C5.35-8.288-8.288,5.352-8.288,22.118z"/>
          <path fill="#474544" d="M25.43,33.243L14.628,22.429c-0.433-0.432-0.433-1.132,0-1.564L25.43,10.051c0.432-0.432,1.132-0.432,1.563,0	c0.431,0.431,0.431,1.132,0,1.564L16.972,21.647l10.021,10.035c0.432,0.433,0.432,1.134,0,1.564	c-0.215,0.218-0.498,0.323-0.78,0.323C25.929,33.569,25.646,33.464,25.43,33.243z"/>
        </g>
      </g>
    </svg>