    <svg version="1.1" xmlns="http://www.w3.org/2000/svg" xmlns:xlink="http://www.w3.org/1999/xlink" x="0px" y="0px" width="65px" height="65px" viewBox="-11 -11.5 65 66">
      <g>
        <g>
          <path fill="#474544" d="M22.118,54.736C4.132,54.736-10.5,40.103-10.5,22.118C-10.5,4.132,4.132-10.5,22.118-10.5	c17.985,0,32.618,14.632,32.618,32.618C54.736,40.103,40.103,54.736,22.118,54.736z M22.118-8.288	c-16.765,0-30.406,13.64-30.406,30.406c0,16.766,13.641,30.406,30.406,30.406c16.768,0,30.406-13.641,30.406-30.406 C52.524,5.352,38.885-8.288,22.118-8.288z"/>
          <path fill="#474544" d="M18.022,33.569c 0.282,0-0.566-0.105-0.781-0.323c-0.432-0.431-0.432-1.132,0-1.564l10.022-10.035 			L17.241,11.615c 0.431-0.432-0.431-1.133,0-1.564c0.432-0.432,1.132-0.432,1.564,0l10.803,10.814c0.433,0.432,0.433,1.132,0,1.564 L18.805,33.243C18.59,33.464,18.306,33.569,18.022,33.569z"/>
        </g>
      </g>
    </svg>