<?xml version="1.0" encoding="utf-8"?>
<svg xmlns="http://www.w3.org/2000/svg" height="48" width="48" viewBox="0 0 48 48">
  <g>
    <path id="path1" transform="rotate(0,24,24) translate(11,14.5343753099442) scale(0.8125,0.8125)  " fill="#000000" d="M0.59997559,2.5000001L15.199982,17.099997C15.699982,17.599997,16.5,17.599997,16.899994,17.099997L31.5,2.5999986C31.799988,2.8000029,32,3.0999983,32,3.4999996L32,22.200002C32,22.8,31.5,23.3,30.899994,23.3L1.0999756,23.3C0.5,23.3,0,22.8,0,22.200002L0,3.4999996C0,3.0999983,0.19998169,2.7000044,0.59997559,2.5000001z M2.2999878,0L29.899994,0C29.899994,0.30000315,29.799988,0.5000001,29.599976,0.70000455L16.799988,13.4C16.399994,13.800002,15.699982,13.800002,15.299988,13.4L2.5999756,0.80000303C2.3999939,0.59999857,2.2999878,0.30000315,2.2999878,0z" />
  </g>
</svg>

