<?xml version="1.0" encoding="utf-8"?>
<svg xmlns="http://www.w3.org/2000/svg" height="48" width="48" viewBox="0 0 48 48">
  <g>
    <path id="path1" transform="rotate(0,24,24) translate(11.0040730724233,11) scale(0.812271964493229,0.812271964493229)  " fill="#FFFFFF" d="M24.194595,5.0095003C23.930281,4.9970529 23.648628,5.1539686 23.51116,5.5169787 23.429129,5.7349966 23.31719,6.0329702 23.932182,6.5310173 25.592222,7.8789785 26.837221,9.5860097 27.632145,11.607006 28.145208,12.910961 28.463201,14.367016 28.504217,15.604015 28.520208,17.622997 28.221136,19.243969 27.536198,20.888012 27.072206,22.003978 26.419128,23.060985 25.596128,24.029979 23.238211,26.80598 20.162151,28.312999 16.452179,28.50996 14.435082,28.612987 12.472186,28.193981 10.583141,27.258983 6.8701175,25.420971 4.5640801,22.414989 3.7281395,18.326 3.2530407,16.010998 3.5070699,13.65797 4.4800953,11.331981 5.2951611,9.3830068 6.5061024,7.7749746 8.0791053,6.5499988 8.3560838,6.3360097 8.7721013,5.9029653 8.4700984,5.4099841 8.3171433,5.1609609 8.1020545,5.0290029 7.8491243,5.0290031 7.6301297,5.0290029 7.3911151,5.1289785 7.1740736,5.3100088 5.8481416,6.4239614 4.7551206,7.6930044 3.9271151,9.0849721 3.2820936,10.16798 2.7951535,11.323986 2.4791127,12.521007 2.3181013,13.133007 2.238145,13.78297 2.1540383,14.469982L2.077134,15.08601C1.898056,16.424999 2.0320896,17.902965 2.499132,19.738964 2.8560668,21.138988 3.4721576,22.488964 4.3300704,23.751964 5.9610571,26.146007 8.1060828,27.896007 10.70509,28.951977 11.896134,29.435009 13.238179,29.758007 14.811182,29.938976 16.098173,30.086986 17.468172,30.000011 18.914101,29.685009 20.0601,29.433971 21.181196,28.983959 22.031175,28.620983 23.862114,27.83601 25.495174,26.565014 26.886171,24.844005 28.64814,22.665966 29.676218,20.133007 29.942211,17.316967 30.108227,15.550976 29.925243,13.811962 29.384226,12.000988 28.808174,10.071972 27.838199,8.3629873 26.500183,6.9229848 25.819151,6.188976 25.174129,5.602001 24.529108,5.1280017 24.431299,5.0558088 24.314737,5.0151584 24.194595,5.0095003z M24.185112,3.0089836C24.736139,3.0089834 25.264217,3.1850088 25.71417,3.5169792 26.46112,4.0669668 27.198183,4.7349966 27.965153,5.5609851 29.514231,7.2290151 30.636183,9.2030141 31.300247,11.42799 31.908159,13.461986 32.120195,15.506969 31.933184,17.505016 31.629227,20.719005 30.454174,23.612987 28.441229,26.102001 26.844179,28.078014 24.953182,29.544018 22.818165,30.458996 21.888109,30.857006 20.652143,31.352001 19.342201,31.638012 18.216101,31.883983 17.115145,32.008983 16.067167,32.008983 15.568143,32.008983 15.069117,31.980968 14.583154,31.924999 12.828144,31.72401 11.313125,31.357982 9.9531344,30.805004 6.9810795,29.596996 4.5340503,27.602978 2.6780878,24.876964 1.6871179,23.422008 0.9750796,21.858959 0.56211418,20.232006 0.029031725,18.141002 -0.11989452,16.420971 0.094095445,14.820019L0.16807032,14.227978C0.25705978,13.503978 0.34910107,12.755993 0.54514641,12.010998 0.90903932,10.633007 1.4681231,9.3039663 2.2081159,8.0609853 3.1520883,6.477001 4.3901294,5.0359609 5.8891572,3.7779654 6.4731435,3.2879751 7.1511239,3.0290029 7.8491243,3.029003 8.8071355,3.0290029 9.6551598,3.5149648 10.175181,4.3650012 10.943128,5.6170156 10.594128,7.1300161 9.3071364,8.1289785 8.009159,9.1389883 7.0061043,10.475963 6.3261703,12.102978 5.5101279,14.052013 5.2951611,16.010998 5.6871303,17.924999 6.4040517,21.427013 8.2951707,23.893993 11.470107,25.466015 13.049091,26.247997 14.677149,26.595958 16.3461,26.511974 19.529093,26.344005 22.0562,25.107982 24.073173,22.734997 24.761164,21.924999 25.305111,21.044994 25.689146,20.120006 26.267151,18.734997 26.518127,17.354992 26.505188,15.64497 26.472229,14.669018 26.198181,13.422985 25.771177,12.339977 25.094173,10.618969 24.080131,9.227001 22.672169,8.0849721 21.162153,6.8609731 21.377121,5.5080068 21.640182,4.8119618 22.04619,3.733959 23.069141,3.0089834 24.185112,3.0089836z M16.012827,2.0000001C15.427827,2.002 15.004826,2.39 15.002827,2.925 14.998826,3.969 14.999826,5.013 15.000827,6.0579998L15.000827,6.484 15.001826,6.484 15.004826,7.484 15.003826,8.6650002C15.002827,9.7279999 15.000827,10.792 15.009827,11.855 15.011826,12.088 15.036826,12.281 15.084826,12.425 15.237826,12.884 15.925826,13.139 16.435827,12.905 16.836826,12.719 16.992826,12.474 16.993826,12.03L16.997826,4.2849998C16.999826,3.82 17.002827,3.356 16.993826,2.8919998 16.983826,2.392 16.553827,2 16.012827,2.0000001z M16.003826,0C17.652826,0 18.962826,1.2539999 18.993826,2.854 19.002827,3.335 18.999826,3.815 18.997826,4.2960002L18.993826,12.032C18.991827,13.255 18.381826,14.209 17.273826,14.72 16.873827,14.905 16.442827,15 15.996826,15 14.702826,15 13.572826,14.217 13.186827,13.054 13.071826,12.706 13.014827,12.32 13.009827,11.873 13.000827,10.801 13.002827,9.7320001 13.003826,8.6629999L13.000827,6.0599997C12.999826,5.0120001 12.998826,3.964 13.002827,2.918 13.008826,1.286 14.326826,0.0039999485 16.003826,0z" />
  </g>
</svg>

