<?xml version="1.0" encoding="utf-8"?>
<svg xmlns="http://www.w3.org/2000/svg" height="48" width="48" viewBox="0 0 48 48">
  <g>
    <path id="path1" transform="rotate(0,24,24) translate(11.7186574339867,11) scale(0.8125,0.8125)  " fill="#000000" d="M12.566004,10.994003C11.763009,10.994003,10.985009,11.218002,10.458001,11.546997L10.722009,12.324005C11.170007,12.022003 11.790002,11.848999 12.396005,11.848999 13.700007,11.837006 13.845011,12.798996 13.845011,13.311996L13.845011,13.445007C11.381005,13.431 10.01101,14.275009 10.01101,15.815002 10.01101,16.738007 10.670007,17.647003 11.961007,17.647003 12.868998,17.647003 13.555002,17.199005 13.909006,16.697998L13.950998,16.697998 14.042002,17.501007 15.084009,17.501007C15.017008,17.067001,14.991007,16.526001,14.991007,15.973999L14.991007,13.589005C14.991007,12.324005,14.517008,10.994003,12.566004,10.994003z M7.5490046,9.5980072L6.4170003,9.9400024 6.4170003,11.126007 5.4290014,11.126007 5.4290014,12.009003 6.4170003,12.009003 6.4170003,15.486008C6.4170003,16.236008 6.5480051,16.803009 6.8650065,17.158997 7.1400004,17.462006 7.576005,17.647003 8.1160059,17.647003 8.564004,17.647003 8.9200068,17.567001 9.1429987,17.488998L9.0909968,16.604996C8.9200068,16.658997 8.7340021,16.684006 8.4180003,16.684006 7.7740031,16.684006 7.5490046,16.236008 7.5490046,15.445999L7.5490046,12.009003 9.2080012,12.009003 9.2080012,11.126007 7.5490046,11.126007z M19.967006,8.147995L19.967006,17.501007 21.113002,17.501007 21.113002,15.104004 21.707011,14.445999 23.893001,17.501007 25.316005,17.501007 22.511012,13.747009 24.961009,11.126007 23.577998,11.126007 21.693004,13.326004C21.509013,13.550003,21.297999,13.826996,21.14001,14.050003L21.113002,14.050003 21.113002,8.147995z M16.859004,8.147995L16.859004,17.501007 18.02,17.501007 18.02,8.147995z M15.116007,0C23.465007,0 30.230998,6.1260071 30.230998,13.684006 30.230998,21.242004 23.465007,27.369995 15.116007,27.369995 13.667002,27.369995 12.267999,27.181 10.94201,26.837006L2.8600011,32 5.2200017,24.024002C2.0240023,21.514999 -3.2562184E-08,17.813995 0,13.684006 -3.2562184E-08,6.1260071 6.7680064,0 15.116007,0z" />
  </g>
</svg>

